<?xml version="1.0" encoding="UTF-8" standalone="no"?>
<!-- Created with Inkscape (http://www.inkscape.org/) -->

<svg
   width="8.5in"
   height="11in"
   viewBox="0 0 215.9 279.4"
   version="1.1"
   id="svg1"
   xmlns="http://www.w3.org/2000/svg"
   xmlns:svg="http://www.w3.org/2000/svg">
  <defs
     id="defs1">
    <rect
       x="47.276013"
       y="925.08708"
       width="315.32046"
       height="57.497019"
       id="rect6" />
    <rect
       x="83.276717"
       y="212.64722"
       width="1133.473"
       height="71.269127"
       id="rect4" />
    <rect
       x="188.30561"
       y="188.64969"
       width="719.42738"
       height="78.697782"
       id="rect3" />
    <rect
       x="112.88543"
       y="96.131276"
       width="709.74456"
       height="90.912698"
       id="rect1" />
  </defs>
  <g
     id="layer3"
     style="display:inline">
    <rect
       style="fill:#ffffff;stroke-width:0.21764"
       id="rect2"
       width="197.89417"
       height="59.209988"
       x="9.6220608"
       y="13.012657" />
    <g
       id="g6"
       transform="translate(-3.0102795)">
      <path
         id="path1"
         d="m 169.38603,208.77192 c 0,-1.94012 -1.62793,-3.51285 -3.63611,-3.51285 -2.0082,0 -3.63611,1.57273 -3.63611,3.51285 0,1.9401 1.62791,3.51283 3.63611,3.51283 2.00818,0 3.63611,-1.57273 3.63611,-3.51283 z"
         style="fill:#000000;fill-opacity:1;fill-rule:nonzero;stroke:#000000;stroke-width:0.178693;stroke-linecap:butt;stroke-linejoin:miter;stroke-miterlimit:10;stroke-dasharray:none;stroke-opacity:1" />
      <path
         id="path2"
         d="m 189.46864,136.36351 c 0,-1.9401 -1.6279,-3.51283 -3.6361,-3.51283 -2.0082,0 -3.63612,1.57273 -3.63612,3.51283 0,1.94015 1.62792,3.51288 3.63612,3.51288 2.0082,0 3.6361,-1.57273 3.6361,-3.51288 z"
         style="fill:#000000;fill-opacity:1;fill-rule:nonzero;stroke:#000000;stroke-width:0.178693;stroke-linecap:butt;stroke-linejoin:miter;stroke-miterlimit:10;stroke-dasharray:none;stroke-opacity:1" />
      <path
         id="path3"
         d="m 134.67932,83.376749 c 0,-1.94012 -1.62792,-3.512863 -3.63611,-3.512863 -2.00821,0 -3.63613,1.572743 -3.63613,3.512863 0,1.940133 1.62792,3.512876 3.63613,3.512876 2.00819,0 3.63611,-1.572743 3.63611,-3.512876 z"
         style="fill:#000000;fill-opacity:1;fill-rule:nonzero;stroke:#000000;stroke-width:0.178693;stroke-linecap:butt;stroke-linejoin:miter;stroke-miterlimit:10;stroke-dasharray:none;stroke-opacity:1" />
      <path
         id="path4"
         d="m 59.806789,102.79822 c 0,-1.94012 -1.627923,-3.51287 -3.63612,-3.51287 -2.008196,0 -3.636121,1.57275 -3.636121,3.51287 0,1.94013 1.627925,3.51286 3.636121,3.51286 2.008197,0 3.63612,-1.57273 3.63612,-3.51286 z"
         style="fill:#000000;fill-opacity:1;fill-rule:nonzero;stroke:#000000;stroke-width:0.178693;stroke-linecap:butt;stroke-linejoin:miter;stroke-miterlimit:10;stroke-dasharray:none;stroke-opacity:1" />
      <path
         id="path5"
         d="m 39.724152,175.2066 c 0,-1.94014 -1.627915,-3.51287 -3.636112,-3.51287 -2.008205,0 -3.636121,1.57273 -3.636121,3.51287 0,1.94012 1.627916,3.51285 3.636121,3.51285 2.008197,0 3.636112,-1.57273 3.636112,-3.51285 z"
         style="fill:#000000;fill-opacity:1;fill-rule:nonzero;stroke:#000000;stroke-width:0.178693;stroke-linecap:butt;stroke-linejoin:miter;stroke-miterlimit:10;stroke-dasharray:none;stroke-opacity:1" />
      <path
         id="path6"
         d="m 94.514088,228.1935 c 0,-1.94012 -1.627925,-3.51287 -3.636122,-3.51287 -2.008187,0 -3.636121,1.57275 -3.636121,3.51287 0,1.94015 1.627934,3.51288 3.636121,3.51288 2.008197,0 3.636122,-1.57273 3.636122,-3.51288 z"
         style="fill:#000000;fill-opacity:1;fill-rule:nonzero;stroke:#000000;stroke-width:0.178693;stroke-linecap:butt;stroke-linejoin:miter;stroke-miterlimit:10;stroke-dasharray:none;stroke-opacity:1" />
      <path
         id="path7"
         d="m 166.71465,205.29362 18.15606,-65.45986 m -1.66915,-6.02622 -49.52663,-47.898036 m -6.23461,-1.614439 -67.681515,17.555755 m -4.56519,4.41245 -18.155977,65.45991 m 1.669877,6.02634 49.527216,47.89815 m 6.2344,1.61367 67.680939,-17.55575 m 2.63717,-4.41249 -32.78406,-118.452199 m -3.59737,-0.931503 -89.698212,86.744452 m 0.966351,3.47978 122.475641,31.70625 m 0.9661,-1.61557 L 58.793367,105.33277 m 0.966161,-1.6158 122.475722,31.70623 m 3.2e-4,1.86572 -142.562233,36.97886"
         style="fill:none;stroke:#000000;stroke-width:1.07219;stroke-linecap:butt;stroke-linejoin:miter;stroke-miterlimit:10;stroke-dasharray:none;stroke-opacity:1" />
      <path
         id="path8"
         d="M 89.906185,224.71628 57.121719,106.26401"
         style="fill:none;stroke:#000000;stroke-width:1.07219;stroke-linecap:butt;stroke-linejoin:miter;stroke-miterlimit:10;stroke-dasharray:none;stroke-opacity:1" />
      <path
         id="path9"
         d="M 91.83378,224.71674 130.07553,86.840461"
         style="fill:none;stroke:#000000;stroke-width:1.07219;stroke-linecap:butt;stroke-linejoin:miter;stroke-miterlimit:10;stroke-dasharray:none;stroke-opacity:1" />
      <path
         id="path10"
         d="M 93.503519,225.64741 183.20107,138.90296"
         style="fill:none;stroke:#000000;stroke-width:1.07219;stroke-linecap:butt;stroke-linejoin:miter;stroke-miterlimit:10;stroke-dasharray:none;stroke-opacity:1" />
    </g>
    <rect
       style="fill:#ffffff;stroke-width:0.123949"
       id="rect5"
       width="197.89417"
       height="19.204439"
       x="9.6220608"
       y="248.46953" />
    <text
       xml:space="preserve"
       transform="matrix(0.26458333,0,0,0.26458333,54.231833,5.5416719)"
       id="text5"
       style="font-size:48px;line-height:1.25;font-family:sans-serif;letter-spacing:0px;word-spacing:0px;white-space:pre;shape-inside:url(#rect6);display:inline"><tspan
         x="47.275391"
         y="968.7619"
         id="tspan5"><tspan
           style="font-family:Abel;-inkscape-font-specification:Abel"
           id="tspan2">Jeremy Sylvestre</tspan></tspan></text>
  </g>
  <g
     id="layer1">
    <text
       xml:space="preserve"
       transform="matrix(0.26458333,0,0,0.26458333,-16.803361,-9.016305)"
       id="text1"
       style="font-size:64px;line-height:1.25;font-family:sans-serif;letter-spacing:0px;word-spacing:0px;white-space:pre;shape-inside:url(#rect1);display:inline"><tspan
         x="112.88477"
         y="154.36287"
         id="tspan7"><tspan
           style="font-family:'Porter Sans Block';-inkscape-font-specification:'Porter Sans Block'"
           id="tspan6">Elementary</tspan></tspan></text>
    <text
       xml:space="preserve"
       transform="matrix(0.26458333,0,0,0.26458333,-36.038516,-15.443851)"
       id="text2"
       style="font-size:64px;line-height:1.25;font-family:sans-serif;letter-spacing:0px;word-spacing:0px;white-space:pre;shape-inside:url(#rect3);display:inline"><tspan
         x="188.30469"
         y="246.8824"
         id="tspan9"><tspan
           style="font-family:'Porter Sans Block';-inkscape-font-specification:'Porter Sans Block'"
           id="tspan8">Foundations</tspan></tspan></text>
    <text
       xml:space="preserve"
       transform="matrix(0.26458333,0,0,0.26458333,-7.4644045,0.28595401)"
       id="text3"
       style="font-size:37.3333px;line-height:1.25;font-family:sans-serif;letter-spacing:0px;word-spacing:0px;white-space:pre;shape-inside:url(#rect4);display:inline"><tspan
         x="83.277344"
         y="246.61513"
         id="tspan11"><tspan
           style="font-family:Abel;-inkscape-font-specification:Abel"
           id="tspan10">An introduction to topics in discrete mathematics</tspan></tspan></text>
  </g>
</svg>
